# xmcd
#
# Track frame offsets: 
#        150
#        16631
#        28608
#        44890
#        56701
#
# Disc length: 1068 seconds
#
# Revision: 1
# Processed by: cddbd v1.5.2PL0 Copyright (c) Steve Scherf et al.
# Submitted via: ExactAudioCopy v0.99pb5
#
DISCID=3b042a05
DTITLE=The BossHoss - Hot In Herre and Like Ice In The Sunshine
DYEAR=2005
DGENRE=Country
TTITLE0=Hot In Herre (Power Mix)
TTITLE1=Like Ice In The Sunshine (Album Version)
TTITLE2=Hot In Herre (Frank Doe Mix)
TTITLE3=Like Ice In The Sunshine (Tijuana Mix)
TTITLE4=Hot In Herre (Club Remix)
EXTD=
EXTT0=
EXTT1=
EXTT2=
EXTT3=
EXTT4=
PLAYORDER=
